{"title":"Shania Twain - Man I Feel Like A Woman (Live from Vegas)","uid":11713817,"size":138795190,"categoryP":"video","categoryS":"music_videos","magnet":"?xt=urn:btih:80e4cd58667bed7c4db726a8f5071fb67512c21d&amp;dn=Shania+Twain+-+Man+I+Feel+Like+A+Woman+%28Live+from+Vegas%29&amp;tr=udp%3A%2F%2Ftracker.openbittorrent.com%3A80&amp;tr=udp%3A%2F%2Fopen.demonii.com%3A1337&amp;tr=udp%3A%2F%2Ftracker.coppersurfer.tk%3A6969&amp;tr=udp%3A%2F%2Fexodus.desync.com%3A6969","seeders":8,"leechers":0,"uploader":"MeRaDil","files":1,"time":1424448484,"description":"SHANIA TWAIN - MAN I FEEL LIKE A WOMAN (LIVE FROM VEGAS)\n\n &lt;a href=&quot;\nhttp://gifyu.com/images/shania.png&quot; rel=&quot;nofollow&quot; target=&quot;_NEW&quot;&gt;\nhttp://gifyu.com/images/shania.png&lt;/a&gt;\n &lt;a href=&quot;\nhttp://gifyu.com/images/ShaniaTwain.png&quot; rel=&quot;nofollow&quot; target=&quot;_NEW&quot;&gt;\nhttp://gifyu.com/images/ShaniaTwain.png&lt;/a&gt;\n\n\nGeneral\nShania Twain - Man I Feel Like A Woman (Live)\nFormat                      : MPEG-4\nFormat profile              : Base Media\nCodec ID                    : isom\nFile size                   : 132 MiB\nDuration                    : 4mn 12s\nOverall bit rate            : 4 397 Kbps\nMovie name                  : Man I Feel Like A Woman (Live)\nAlbum                       : Still The One : Live from Vegas\nPerformer                   : Shania Twain\nGenre                       : Country\nContentType                 : Music Video\nRecorded date               : 2015\nCopyright                   : Shania Twain\nCover                       : Yes\nRating                      : ****\nMake                        : MeRaDil\nArtist url                  : http://www.shaniatwain.com\nrelease                     : Canada/USA . february 20 . 2015\nPart_ID                     : Man I Feel Like A Woman\n\nVideo\nID                          : 1\nFormat                      : AVC\nFormat/Info                 : Advanced Video Codec\nFormat profile              : &lt;a class=&quot;__cf_email__&quot; href=&quot;/cdn-cgi/l/email-protection&quot; data-cfemail=&quot;6a22030d022a265e445a&quot;&gt;[email&amp;#160;protected]&lt;/a&gt;&lt;script cf-hash='f9e31' type=&quot;text/javascript&quot;&gt;\n/* &lt;![CDATA[ */!function(){try{var t=&quot;currentScript&quot;in document?document.currentScript:function(){for(var t=document.getElementsByTagName(&quot;script&quot;),e=t.length;e--;)if(t[e].getAttribute(&quot;cf-hash&quot;))return t[e]}();if(t&amp;&amp;t.previousSibling){var e,r,n,i,c=t.previousSibling,a=c.getAttribute(&quot;data-cfemail&quot;);if(a){for(e=&quot;&quot;,r=parseInt(a.substr(0,2),16),n=2;a.length-n;n+=2)i=parseInt(a.substr(n,2),16)^r,e+=String.fromCharCode(i);e=document.createTextNode(e),c.parentNode.replaceChild(e,c)}}}catch(u){}}();/* ]]&gt; */&lt;/script&gt;\nFormat settings, CABAC      : Yes\nFormat settings, ReFrames   : 2 frames\nCodec ID                    : avc1\nCodec ID/Info               : Advanced Video Coding\nDuration                    : 4mn 12s\nBit rate                    : 4 134 Kbps\nWidth                       : 1 920 pixels\nHeight                      : 1 080 pixels\nDisplay aspect ratio        : 16:9\nFrame rate mode             : Variable\nFrame rate                  : 23.976 fps\nMinimum frame rate          : 23.974 fps\nMaximum frame rate          : 23.981 fps\nColor space                 : YUV\nChroma subsampling          : 4:2:0\nBit depth                   : 8 bits\nScan type                   : Progressive\nBits/(Pixel*Frame)          : 0.083\nStream size                 : 124 MiB (94%)\n\nAudio\nID                          : 2\nFormat                      : AAC\nFormat/Info                 : Advanced Audio Codec\nFormat profile              : LC\nCodec ID                    : 40\nDuration                    : 4mn 12s\nBit rate mode               : Constant\nBit rate                    : 256 Kbps\nChannel(s)                  : 2 channels\nChannel positions           : Front: L R\nSampling rate               : 44.1 KHz\nCompression mode            : Lossy\nStream size                 : 7.71 MiB (6%)\n &lt;a href=&quot;\nhttps://thepiratebay.se/user/MeRaDil&quot; rel=&quot;nofollow&quot; target=&quot;_NEW&quot;&gt;\nhttps://thepiratebay.se/user/MeRaDil&lt;/a&gt;\n\nCanada/USA february 2015 * Live performance\n\n:)","torrent":{"xt":"urn:btih:80e4cd58667bed7c4db726a8f5071fb67512c21d","amp;dn":"Shania+Twain+-+Man+I+Feel+Like+A+Woman+%28Live+from+Vegas%29","amp;tr":["udp%3A%2F%2Ftracker.openbittorrent.com%3A80","udp%3A%2F%2Fopen.demonii.com%3A1337","udp%3A%2F%2Ftracker.coppersurfer.tk%3A6969","udp%3A%2F%2Fexodus.desync.com%3A6969"],"infoHash":"80e4cd58667bed7c4db726a8f5071fb67512c21d","infoHashBuffer":{"type":"Buffer","data":[128,228,205,88,102,123,237,124,77,183,38,168,245,7,31,182,117,18,194,29]},"announce":[],"urlList":[]}}